<svg xmlns="http://www.w3.org/2000/svg" viewBox="0 0 416.5 69"><style type="text/css">	.st0{fill:#FFFFFF;}	.st1{fill:#FF6F00;}</style><path class="st0" d="M203.9,27c-1.3-1.3-2.9-2.3-4.5-3c-1.7-0.7-3.5-1-5.4-1c-1.9,0-3.7,0.3-5.4,1c-1.7,0.7-3.2,1.7-4.6,3		c-1.3,1.3-2.4,2.8-3,4.5c-0.7,1.7-1,3.4-1,5.3c0,1.9,0.3,3.7,1,5.3c0.7,1.6,1.7,3.1,3,4.4c1.3,1.3,2.8,2.3,4.5,3		c1.7,0.7,3.5,1,5.4,1c1.9,0,3.6-0.3,5.3-1c1.7-0.7,3.2-1.7,4.6-3c1.3-1.3,2.4-2.8,3.1-4.4c0.7-1.7,1-3.4,1-5.3c0-1.9-0.3-3.6-1-5.3		C206.2,29.8,205.2,28.3,203.9,27z M202.8,40.5c-0.5,1.2-1.2,2.2-2.1,3.2c-0.9,0.9-2,1.6-3.1,2.1c-1.2,0.5-2.4,0.7-3.6,0.7		c-1.3,0-2.5-0.2-3.7-0.7c-1.2-0.5-2.2-1.2-3.1-2.1c-0.9-0.9-1.6-2-2.1-3.2c-0.5-1.2-0.7-2.4-0.7-3.8c0-1.3,0.2-2.6,0.7-3.8		c0.5-1.2,1.2-2.3,2.1-3.2c0.9-0.9,1.9-1.6,3.1-2.1c1.2-0.5,2.4-0.7,3.7-0.7c1.3,0,2.5,0.2,3.7,0.7c1.2,0.5,2.2,1.2,3.1,2.1		c0.9,0.9,1.6,2,2.1,3.2c0.5,1.2,0.7,2.5,0.7,3.8C203.5,38.1,203.3,39.4,202.8,40.5z"/><path class="st0" d="M275,41.8c-0.5-0.6-1-1.2-1.5-1.7c-0.5-0.5-0.9-1-1.4-1.5l-16.7-16v27.3h3.9V31.6c0.4,0.5,0.8,1.1,1.2,1.5		c0.4,0.5,0.9,1,1.3,1.4l17,16.3V23.6H275V41.8z"/><path class="st0" d="M106,22.6v27.3h3.9V31.6c0.4,0.5,0.8,1.1,1.2,1.5c0.4,0.5,0.9,1,1.3,1.4l7.2,7l0,0l7.2-7		c0.5-0.4,0.9-0.9,1.3-1.4c0.4-0.5,0.8-1,1.2-1.5v18.2h3.9V22.6l-13.7,13.2L106,22.6z"/><path class="st0" d="M415.4,31.5c-0.7-1.7-1.7-3.2-3.1-4.5c-1.3-1.3-2.9-2.3-4.5-3c-1.7-0.7-3.5-1-5.4-1c-1.9,0-3.7,0.3-5.4,1		c-1.7,0.7-3.2,1.7-4.6,3c-1.3,1.3-2.4,2.8-3,4.5c-0.7,1.7-1,3.4-1,5.3c0,1.9,0.3,3.7,1,5.3c0.7,1.6,1.7,3.1,3,4.4		c1.3,1.3,2.8,2.3,4.5,3c1.7,0.7,3.5,1,5.4,1c1.9,0,3.6-0.3,5.3-1c1.7-0.7,3.2-1.7,4.6-3c1.3-1.3,2.4-2.8,3.1-4.4		c0.7-1.7,1-3.4,1-5.3C416.5,34.9,416.1,33.2,415.4,31.5z M411.3,40.5c-0.5,1.2-1.2,2.2-2.1,3.2c-0.9,0.9-2,1.6-3.1,2.1		c-1.2,0.5-2.4,0.7-3.6,0.7c-1.3,0-2.5-0.2-3.7-0.7c-1.2-0.5-2.2-1.2-3.1-2.1c-0.9-0.9-1.6-2-2.1-3.2c-0.5-1.2-0.7-2.4-0.7-3.8		c0-1.3,0.2-2.6,0.7-3.8c0.5-1.2,1.2-2.3,2.1-3.2c0.9-0.9,1.9-1.6,3.1-2.1c1.2-0.5,2.4-0.7,3.7-0.7c1.3,0,2.5,0.2,3.7,0.7		c1.2,0.5,2.2,1.2,3.1,2.1c0.9,0.9,1.6,2,2.1,3.2c0.5,1.2,0.7,2.5,0.7,3.8C412,38.1,411.8,39.4,411.3,40.5z"/><path class="st1" d="M0,0v59.3h8V19.4L57.6,69V0L28.8,28.8L0,0z M49.6,19.4v30.2L34.5,34.5L49.6,19.4z"/><rect x="326.1" y="45.4" class="st1" width="17.5" height="4.5"/><rect x="326.1" y="34.5" class="st1" width="17.5" height="4.5"/><rect x="326.1" y="23.6" class="st1" width="17.5" height="4.5"/></svg>