<svg xmlns="http://www.w3.org/2000/svg" viewBox="0 0 319 297.2"><style>.cls-2 {fill: #ff6f00;}   .cls-4 {fill: #fff;}</style><path class="cls-2" d="M621.5,186.54l44-44v88ZM688.91,86l-84,84L521,86h0V258.8h23.42V142.54L688.91,287.07V86h0Z" transform="translate(-445 -86)"/><path class="cls-4" d="M456.31,369a6.33,6.33,0,0,0-2-1.51A5.58,5.58,0,0,0,452,367a5.28,5.28,0,0,0-3.74,1.59,5.21,5.21,0,0,0-1.13,1.74,5.78,5.78,0,0,0-.38,2.12,6,6,0,0,0,.22,1.68,4.81,4.81,0,0,0,.67,1.41,5.44,5.44,0,0,0,1.94,1.72,5.44,5.44,0,0,0,4.81.09,6.09,6.09,0,0,0,2-1.55v2.07a7.44,7.44,0,0,1-2.1,1.07,7.52,7.52,0,0,1-2.32.36,6.71,6.71,0,0,1-2-.31,6.72,6.72,0,0,1-4.79-6.52,7.22,7.22,0,0,1,.51-2.75,6.63,6.63,0,0,1,1.54-2.25,6.72,6.72,0,0,1,2.22-1.44,7.19,7.19,0,0,1,2.66-.48,7.09,7.09,0,0,1,2.2.34,7.92,7.92,0,0,1,2.1,1.07v2Z" transform="translate(-445 -86)"/><path class="cls-4" d="M475.3,372.47a6.79,6.79,0,0,1-.52,2.65,6.6,6.6,0,0,1-1.51,2.21,7.11,7.11,0,0,1-9.92,0,6.66,6.66,0,0,1-2-4.86,6.8,6.8,0,0,1,.52-2.65,6.71,6.71,0,0,1,1.53-2.22,7,7,0,0,1,2.27-1.47,7.19,7.19,0,0,1,5.36,0,7,7,0,0,1,2.28,1.47,6.58,6.58,0,0,1,1.51,2.21,6.84,6.84,0,0,1,.52,2.66m-7,5.4a5.23,5.23,0,0,0,2-.41,5.43,5.43,0,0,0,1.75-1.19,5.29,5.29,0,0,0,1.57-3.81,5.47,5.47,0,0,0-.41-2.09,5.33,5.33,0,0,0-5-3.33,5.37,5.37,0,0,0-2.07.4,5.15,5.15,0,0,0-1.73,1.17,5.45,5.45,0,0,0,1.75,8.85,5.25,5.25,0,0,0,2,.4" transform="translate(-445 -86)"/><polygon class="cls-4" points="41.87 293.5 37.8 284.09 36.15 292.99 34.63 292.99 37.29 279.38 41.87 290.21 46.45 279.38 49.1 292.99 47.58 292.99 45.92 284.09 41.87 293.5"/><path class="cls-4" d="M499,365.9h1.57V374a4.24,4.24,0,0,0,.85,2.92,4.25,4.25,0,0,0,5.31,0,4.24,4.24,0,0,0,.84-2.92V365.9h1.58V374a5.55,5.55,0,0,1-1.26,4,6.16,6.16,0,0,1-7.62,0,5.55,5.55,0,0,1-1.27-4V365.9Z" transform="translate(-445 -86)"/><polygon class="cls-4" points="70.17 292.99 70.17 279.38 79.75 289.85 79.75 279.9 81.23 279.9 81.23 293.5 71.65 283.15 71.65 292.99 70.17 292.99"/><rect class="cls-4" x="87.31" y="279.9" width="1.56" height="13.09"/><path class="cls-4" d="M550.59,369a6.32,6.32,0,0,0-2-1.51,5.58,5.58,0,0,0-2.35-.49,5.28,5.28,0,0,0-3.74,1.59,5.21,5.21,0,0,0-1.13,1.74,5.78,5.78,0,0,0-.38,2.12,6,6,0,0,0,.22,1.68,4.81,4.81,0,0,0,.67,1.41,5.44,5.44,0,0,0,1.94,1.72,5.44,5.44,0,0,0,4.81.09,6.09,6.09,0,0,0,2-1.55v2.07a7.44,7.44,0,0,1-2.1,1.07,7.52,7.52,0,0,1-2.32.36,6.71,6.71,0,0,1-2-.31,6.72,6.72,0,0,1-4.79-6.52,7.22,7.22,0,0,1,.51-2.75,6.62,6.62,0,0,1,1.54-2.25,6.71,6.71,0,0,1,2.22-1.44,7.19,7.19,0,0,1,2.66-.48,7.09,7.09,0,0,1,2.2.34,7.92,7.92,0,0,1,2.1,1.07v2Z" transform="translate(-445 -86)"/><path class="cls-4" d="M560.32,365.38l6,13.61h-1.69l-1.7-4h-5.12l-1.7,4h-1.69Zm0,3.44-2.09,4.82h4.17Z" transform="translate(-445 -86)"/><path class="cls-4" d="M581.18,369a6.33,6.33,0,0,0-2-1.51,5.59,5.59,0,0,0-2.35-.49,5.28,5.28,0,0,0-3.74,1.59,5.22,5.22,0,0,0-1.13,1.74,5.8,5.8,0,0,0-.37,2.12,6,6,0,0,0,.22,1.68,4.78,4.78,0,0,0,.67,1.41,5.44,5.44,0,0,0,1.94,1.72,5.44,5.44,0,0,0,4.81.08,6.11,6.11,0,0,0,2-1.55v2.07a7.45,7.45,0,0,1-2.1,1.07,7.52,7.52,0,0,1-2.32.36,6.7,6.7,0,0,1-2-.31,6.86,6.86,0,0,1-1.84-.9,6.65,6.65,0,0,1-2.94-5.63,7.22,7.22,0,0,1,.5-2.75,6.61,6.61,0,0,1,1.54-2.25,6.72,6.72,0,0,1,2.22-1.44,7.19,7.19,0,0,1,2.66-.48,7.09,7.09,0,0,1,2.2.34,8,8,0,0,1,2.1,1.07v2Zm-6.73,13.77v-0.89q0.71,0.16,1.28.25a6.07,6.07,0,0,0,.92.09,1.46,1.46,0,0,0,.81-0.18,0.62,0.62,0,0,0,.27-0.55,0.64,0.64,0,0,0-.29-0.58,1.71,1.71,0,0,0-.91-0.19h-0.48V379h0.68v0.91H577a2.31,2.31,0,0,1,1.48.41,1.66,1.66,0,0,1-.06,2.45,2.72,2.72,0,0,1-1.66.43,6.12,6.12,0,0,1-1-.1,12.8,12.8,0,0,1-1.27-.3" transform="translate(-445 -86)"/><path class="cls-4" d="M590.91,365.38l6,13.61h-1.69l-1.7-4h-5.12l-1.7,4H585Zm2.64-3.27a2.76,2.76,0,0,1-.63,1.39,1.49,1.49,0,0,1-1.13.48l-0.27,0-0.32-.07-0.86-.23-0.23-.06-0.21,0a0.76,0.76,0,0,0-.48.16,1.09,1.09,0,0,0-.33.45h-0.79a2.63,2.63,0,0,1,.61-1.36,1.47,1.47,0,0,1,1.12-.47l0.29,0,0.24,0.05,0.88,0.26,0.3,0.07,0.18,0a0.8,0.8,0,0,0,.51-0.16,1.09,1.09,0,0,0,.34-0.49h0.79Zm-2.64,6.72-2.08,4.82H593Z" transform="translate(-445 -86)"/><path class="cls-4" d="M614.55,372.47a6.81,6.81,0,0,1-.52,2.65,6.61,6.61,0,0,1-1.51,2.21,7.11,7.11,0,0,1-9.92,0,6.66,6.66,0,0,1-2.05-4.86,6.8,6.8,0,0,1,.52-2.65,6.69,6.69,0,0,1,1.53-2.22,7,7,0,0,1,2.27-1.47,7.19,7.19,0,0,1,5.37,0,7,7,0,0,1,2.28,1.47,6.59,6.59,0,0,1,1.51,2.21,6.86,6.86,0,0,1,.52,2.66m-7,5.4a5.23,5.23,0,0,0,2-.41,5.43,5.43,0,0,0,1.75-1.19,5.31,5.31,0,0,0,1.57-3.81,5.47,5.47,0,0,0-.41-2.09,5.33,5.33,0,0,0-5-3.33,5.37,5.37,0,0,0-2.07.4,5.15,5.15,0,0,0-1.73,1.17,5.45,5.45,0,0,0,1.75,8.85,5.25,5.25,0,0,0,2,.4" transform="translate(-445 -86)"/><rect class="cls-4" x="183.37" y="279.9" width="1.56" height="13.09"/><polygon class="cls-4" points="191.03 292.99 191.03 279.38 200.6 289.85 200.6 279.9 202.09 279.9 202.09 293.5 192.51 283.15 192.51 292.99 191.03 292.99"/><polygon class="cls-4" points="210.44 292.99 210.44 281.38 206.74 281.38 206.74 279.9 215.7 279.9 215.7 281.38 212.01 281.38 212.01 292.99 210.44 292.99"/><polygon class="cls-4" points="220.37 292.99 220.37 279.9 227.27 279.9 227.27 281.32 221.92 281.32 221.92 285.08 227.27 285.08 227.27 286.53 221.92 286.53 221.92 291.54 227.27 291.54 227.27 292.99 220.37 292.99"/><polygon class="cls-4" points="232.84 292.99 232.84 279.9 234.4 279.9 234.4 291.51 239.34 291.51 239.34 292.99 232.84 292.99"/><rect class="cls-4" x="244.14" y="279.9" width="1.56" height="13.09"/><path class="cls-4" d="M704,372.23h5.4v0.44a6.68,6.68,0,0,1-1.75,4.88,6.39,6.39,0,0,1-4.79,1.79,7.65,7.65,0,0,1-1.76-.2,6.39,6.39,0,0,1-1.54-.57,6.24,6.24,0,0,1-2.49-2.45,7.12,7.12,0,0,1-.88-3.55,7.93,7.93,0,0,1,.52-3,6.44,6.44,0,0,1,1.58-2.32,5.9,5.9,0,0,1,2.06-1.27,7.47,7.47,0,0,1,2.59-.43,7.34,7.34,0,0,1,3.27.68,5.84,5.84,0,0,1,2.3,2.06l-1.3,1a4.81,4.81,0,0,0-1.76-1.78A4.91,4.91,0,0,0,703,367a4.81,4.81,0,0,0-3.7,1.54,5.69,5.69,0,0,0-1.42,4,5.32,5.32,0,0,0,1.44,3.85,4.88,4.88,0,0,0,3.68,1.5,4.68,4.68,0,0,0,3.28-1.19,4.49,4.49,0,0,0,1.45-3.11H704v-1.4Z" transform="translate(-445 -86)"/><polygon class="cls-4" points="269.64 292.99 269.64 279.9 276.54 279.9 276.54 281.32 271.19 281.32 271.19 285.08 276.54 285.08 276.54 286.53 271.19 286.53 271.19 291.54 276.54 291.54 276.54 292.99 269.64 292.99"/><polygon class="cls-4" points="282.11 292.99 282.11 279.38 291.69 289.85 291.69 279.9 293.17 279.9 293.17 293.5 283.59 283.15 283.59 292.99 282.11 292.99"/><polygon class="cls-4" points="301.52 292.99 301.52 281.38 297.82 281.38 297.82 279.9 306.78 279.9 306.78 281.38 303.1 281.38 303.1 292.99 301.52 292.99"/><polygon class="cls-4" points="311.45 292.99 311.45 279.9 318.36 279.9 318.36 281.32 313.01 281.32 313.01 285.08 318.36 285.08 318.36 286.53 313.01 286.53 313.01 291.54 318.36 291.54 318.36 292.99 311.45 292.99"/><path class="cls-4" d="M545.54,315.64a14.31,14.31,0,0,0-4.67-3.06,15.08,15.08,0,0,0-11.06,0,14.27,14.27,0,0,0-4.68,3.06,13.87,13.87,0,0,0-3.13,4.58,14.45,14.45,0,0,0,0,10.9,13.71,13.71,0,0,0,3.13,4.55,14.3,14.3,0,0,0,4.67,3.07,14.57,14.57,0,0,0,5.55,1.08,14.37,14.37,0,0,0,5.49-1.07,14.76,14.76,0,0,0,4.7-3.07,14,14,0,0,0,3.14-15.42,14.16,14.16,0,0,0-3.14-4.61m-1.1,13.89a10.09,10.09,0,0,1-2.15,3.27,9.88,9.88,0,0,1-3.19,2.19,9.48,9.48,0,0,1-3.75.75,9.59,9.59,0,0,1-7-2.95,10,10,0,0,1-2.14-3.26,10.22,10.22,0,0,1-.74-3.87,10.42,10.42,0,0,1,.74-3.9,9.75,9.75,0,0,1,2.14-3.26,9.74,9.74,0,0,1,10.76-2.18,9.48,9.48,0,0,1,3.16,2.18,10.09,10.09,0,0,1,2.15,3.28,10.25,10.25,0,0,1,.74,3.88,10.13,10.13,0,0,1-.74,3.86" transform="translate(-445 -86)"/><path class="cls-4" d="M618.58,330.83q-0.79-1-1.51-1.79t-1.42-1.49l-17.12-16.48v28h4V320.35q0.59,0.83,1.24,1.58t1.35,1.44l17.47,16.77v-28h-4.05v18.69Z" transform="translate(-445 -86)"/><path class="cls-4" d="M445,311.07v28h4V320.35q0.59,0.83,1.24,1.58t1.35,1.44l7.44,7.14h0l7.44-7.14q0.7-.68,1.35-1.44t1.24-1.58V339.1h4v-28l-14.07,13.54Z" transform="translate(-445 -86)"/><path class="cls-4" d="M762.92,320.25a14.16,14.16,0,0,0-3.14-4.61,14.31,14.31,0,0,0-4.67-3.06,15.08,15.08,0,0,0-11.06,0,14.28,14.28,0,0,0-4.68,3.06,13.85,13.85,0,0,0-3.13,4.58,14.44,14.44,0,0,0,0,10.9,13.69,13.69,0,0,0,3.13,4.55,14.3,14.3,0,0,0,4.67,3.07,14.57,14.57,0,0,0,5.55,1.08,14.37,14.37,0,0,0,5.49-1.07,14.75,14.75,0,0,0,4.7-3.07,14,14,0,0,0,3.14-15.42m-4.23,9.28a10.07,10.07,0,0,1-2.15,3.27,9.88,9.88,0,0,1-3.19,2.19,9.48,9.48,0,0,1-3.75.75,9.59,9.59,0,0,1-7-2.95,10,10,0,0,1-2.14-3.26,10.22,10.22,0,0,1-.74-3.87,10.42,10.42,0,0,1,.74-3.9,9.76,9.76,0,0,1,2.14-3.26,9.74,9.74,0,0,1,10.76-2.18,9.48,9.48,0,0,1,3.16,2.18,10.07,10.07,0,0,1,2.15,3.28,10.25,10.25,0,0,1,.75,3.88,10.13,10.13,0,0,1-.75,3.86" transform="translate(-445 -86)"/><rect class="cls-2" x="226.1" y="248.51" width="17.95" height="4.58"/><rect class="cls-2" x="226.1" y="237.33" width="17.95" height="4.58"/><rect class="cls-2" x="226.1" y="226.14" width="17.95" height="4.58"/></svg>