<svg xmlns="http://www.w3.org/2000/svg" width="41.032" height="41.032" viewBox="0 0 41.032 41.032"><path d="M760.608,689.107h0.016l-3.957-3.957H756.65l-3.958-3.958h0.017l-3.958-3.958h-0.016l-3.958-3.957h0.017l-3.958-3.958h-0.017l-5.4-5.4L732.9,666.43l5.936,5.936v0.911h0.911l3.957,3.957H738.84v3.958h8.826l3.958,3.958H738.84v3.957h16.741l15.831,15.831,2.513-2.513Zm9.894-11.873H753.777l1.437,1.437,2.521,2.521H770.5v-3.958Zm0-3.957v-3.958h-24.64l3.958,3.958H770.5ZM738.84,697.023h19.789v-3.958H738.84v3.958Zm31.662-7.916V685.15h-8.809l3.957,3.957H770.5Z" transform="translate(-732.906 -663.906)"/>
</svg>
