<?xml version="1.0" encoding="UTF-8"?><!DOCTYPE svg PUBLIC "-//W3C//DTD SVG 1.1//EN" "http://www.w3.org/Graphics/SVG/1.1/DTD/svg11.dtd"><svg xmlns="http://www.w3.org/2000/svg" xmlns:xlink="http://www.w3.org/1999/xlink"><defs>
    <style>
      .cls-1 {
        fill: #e53935;
        fill-rule: evenodd;
      }
    </style>
  
    <style>
      .cls-1 {
        fill: #94dafa;
        fill-rule: evenodd;
      }
    </style>
  
    <style>
      .cls-1 {
        fill: #fff;
        fill-rule: evenodd;
      }
    </style>
  
    <style>
      .cls-1 {
        fill: #92989b;
        fill-rule: evenodd;
      }
    </style>
  
    <style>
      .cls-1 {
        fill: #92989b;
        fill-rule: evenodd;
      }
    </style>
  
    <style>
      .cls-1 {
        fill: #92989b;
        fill-rule: evenodd;
      }
    </style>
  
    <style>
      .cls-1 {
        fill: #ff6f00;
        fill-rule: evenodd;
      }
    </style>
  
    <style>
      .cls-1 {
        fill: #fff;
        fill-rule: evenodd;
      }
    </style>
  </defs><symbol id="adicionar" viewBox="0 0 24 24"><path d="M13 7h-2v4H7v2h4v4h2v-4h4v-2h-4V7zm-1-5C6.48 2 2 6.48 2 12s4.48 10 10 10 10-4.48 10-10S17.52 2 12 2zm0 18c-4.41 0-8-3.59-8-8s3.59-8 8-8 8 3.59 8 8-3.59 8-8 8z"/></symbol><symbol id="adicionar2" viewBox="0 0 24 24"><path d="M13 7h-2v4H7v2h4v4h2v-4h4v-2h-4V7zm-1-5C6.48 2 2 6.48 2 12s4.48 10 10 10 10-4.48 10-10S17.52 2 12 2zm0 18c-4.41 0-8-3.59-8-8s3.59-8 8-8 8 3.59 8 8-3.59 8-8 8z"/></symbol><symbol id="agendada" viewBox="0 0 24 24">
<path d="M9,11H7v2h2V11z M13,11h-2v2h2V11z M17,11h-2v2h2V11z M19,4h-1V2h-2v2H8V2H6v2H5C3.9,4,3,4.9,3,6v14c0,1.1,0.9,2,2,2h14
	c1.1,0,2-0.9,2-2V6C21,4.9,20.1,4,19,4z M19,20H5V9h14V20z"/>
</symbol><symbol id="agendamento_atrasado" viewBox="0 0 20 22">
  <metadata><?xpacket begin="﻿" id="W5M0MpCehiHzreSzNTczkc9d"?>
<x:xmpmeta xmlns:x="adobe:ns:meta/" x:xmptk="Adobe XMP Core 5.6-c138 79.159824, 2016/09/14-01:09:01        ">
   <rdf:RDF xmlns:rdf="http://www.w3.org/1999/02/22-rdf-syntax-ns#">
      <rdf:Description rdf:about=""/>
   </rdf:RDF>
</x:xmpmeta>
                                                                                                    
                                                                                                    
                                                                                                    
                                                                                                    
                                                                                                    
                                                                                                    
                                                                                                    
                                                                                                    
                                                                                                    
                                                                                                    
                                                                                                    
                                                                                                    
                                                                                                    
                                                                                                    
                                                                                                    
                                                                                                    
                                                                                                    
                                                                                                    
                                                                                                    
                                                                                                    
                           
<?xpacket end="w"?></metadata>

  <path id="Multi_Dat" data-name="Multi Dat" class="cls-1" d="M711,2138h-2v14a2.006,2.006,0,0,0,2,2h14v-2H711v-14Zm16-4v-2h-2v2h-8v-2h-2v2a2.006,2.006,0,0,0-2,2v12a2.006,2.006,0,0,0,2,2h12a2.006,2.006,0,0,0,2-2v-12A2.006,2.006,0,0,0,727,2134Zm0,14H715v-10h12v10Zm-6-8h-4v4h4v-4Z" transform="translate(-709 -2132)"/>
</symbol><symbol id="alerta" viewBox="0 0 24 24"><path d="M11 15h2v2h-2zm0-8h2v6h-2zm.99-5C6.47 2 2 6.48 2 12s4.47 10 9.99 10C17.52 22 22 17.52 22 12S17.52 2 11.99 2zM12 20c-4.42 0-8-3.58-8-8s3.58-8 8-8 8 3.58 8 8-3.58 8-8 8z"/></symbol><symbol id="arquivo" viewBox="0 0 24 24"><path d="M14,2H6C4.9,2,4,2.9,4,4l0,16c0,1.1,0.9,2,2,2h12c1.1,0,2-0.9,2-2V8L14,2z M16,18H8v-2h8V18z M16,14H8v-2h8V14z M13,9V3.5	L18.5,9H13z"/></symbol><symbol id="blacklist" viewBox="0 0 24 24"><path d="M3,13h2v-2H3V13z M3,17h2v-2H3V17z M3,9h2V7H3V9z M7,13h14v-2H7V13z M7,17h14v-2H7V17z M7,7v2h14V7H7z"/></symbol><symbol id="bloqueio" viewBox="0 0 20 20"><path d="M382,1500a10,10,0,1,0,10,10A10.029,10.029,0,0,0,382,1500Zm-8,10a8.024,8.024,0,0,1,8-8,7.481,7.481,0,0,1,4.9,1.7l-11.2,11.2A7.481,7.481,0,0,1,374,1510Zm8,8a7.481,7.481,0,0,1-4.9-1.7l11.2-11.2a7.481,7.481,0,0,1,1.7,4.9A8.024,8.024,0,0,1,382,1518Z" transform="translate(-372 -1500)"/>
</symbol><symbol id="bom" viewBox="0 0 24 24">
    <path d="M0 0h24v24H0z" fill="none"/>
    <path d="M1 21h4V9H1v12zm22-11c0-1.1-.9-2-2-2h-6.31l.95-4.57.03-.32c0-.41-.17-.79-.44-1.06L14.17 1 7.59 7.59C7.22 7.95 7 8.45 7 9v10c0 1.1.9 2 2 2h9c.83 0 1.54-.5 1.84-1.22l3.02-7.05c.09-.23.14-.47.14-.73v-1.91l-.01-.01L23 10z"/>
</symbol><symbol id="busca" viewBox="0 0 24 24"><path d="M15.5,14h-0.8l-0.3-0.3c1-1.1,1.6-2.6,1.6-4.2C16,5.9,13.1,3,9.5,3S3,5.9,3,9.5S5.9,16,9.5,16c1.6,0,3.1-0.6,4.2-1.6	l0.3,0.3v0.8l5,5l1.5-1.5L15.5,14z M9.5,14C7,14,5,12,5,9.5S7,5,9.5,5S14,7,14,9.5S12,14,9.5,14z"/></symbol><symbol id="cancelar" viewBox="0 0 24 24"><path d="M19 6.41L17.59 5 12 10.59 6.41 5 5 6.41 10.59 12 5 17.59 6.41 19 12 13.41 17.59 19 19 17.59 13.41 12z"/><path d="M0 0h24v24H0z" fill="none"/></symbol><symbol id="carteira" viewBox="0 0 24 24"><path d="M20 6h-8l-2-2H4c-1.1 0-1.99.9-1.99 2L2 18c0 1.1.9 2 2 2h16c1.1 0 2-.9 2-2V8c0-1.1-.9-2-2-2zm0 12H4V8h16v10z"/></symbol><symbol id="chave" viewBox="0 0 24 24"><path d="M12.65 10C11.83 7.67 9.61 6 7 6c-3.31 0-6 2.69-6 6s2.69 6 6 6c2.61 0 4.83-1.67 5.65-4H17v4h4v-4h2v-4H12.65zM7 14c-1.1 0-2-.9-2-2s.9-2 2-2 2 .9 2 2-.9 2-2 2z"/></symbol><symbol id="check" viewBox="0 0 24 24"><path d="M9 16.17L4.83 12l-1.42 1.41L9 19 21 7l-1.41-1.41z"/></symbol><symbol id="comparativo" viewBox="0 0 24 24"><path d="M9,14H2v2h7v3l4-4l-4-4V14z M15,13v-3h7V8h-7V5l-4,4L15,13z"/></symbol><symbol id="completo" viewBox="0 0 24 24"><path d="M18 7l-1.41-1.41-6.34 6.34 1.41 1.41L18 7zm4.24-1.41L11.66 16.17 7.48 12l-1.41 1.41L11.66 19l12-12-1.42-1.41zM.41 13.41L6 19l1.41-1.41L1.83 12 .41 13.41z"/></symbol><symbol id="data" viewBox="0 0 24 24"><path d="M0 0h24v24H0z" fill="none"/><path d="M19 3h-1V1h-2v2H8V1H6v2H5c-1.11 0-1.99.9-1.99 2L3 19c0 1.1.89 2 2 2h14c1.1 0 2-.9 2-2V5c0-1.1-.9-2-2-2zm0 16H5V8h14v11zM7 10h5v5H7z"/>
</symbol><symbol id="datafinal" viewBox="0 0 24 24">
<path d="M17,12h-5v5h5V12z M16,1v2H8V1H6v2H5C3.9,3,3,3.9,3,5l0,14c0,1.1,0.9,2,2,2h14c1.1,0,2-0.9,2-2V5c0-1.1-0.9-2-2-2h-1V1H16z
	 M19,19H5V8h14V19z"/>
</symbol><symbol id="distribuir" viewBox="0 0 24 24"><path d="M14 4l2.29 2.29-2.88 2.88 1.42 1.42 2.88-2.88L20 10V4zm-4 0H4v6l2.29-2.29 4.71 4.7V20h2v-8.41l-5.29-5.3z"/></symbol><symbol id="distribuir_igual" viewBox="0 0 20 20">
<path d="M1094,476v-2h-8v2h8Zm-4-13a10,10,0,1,0,10,10A10,10,0,0,0,1090,463Zm0,18a8,8,0,1,1,8-8A8.011,8.011,0,0,1,1090,481Zm4-9v-2h-8v2h8Z" transform="translate(-1080 -463)"/>
</symbol><symbol id="download" viewBox="0 0 24 24"><path d="M19 9h-4V3H9v6H5l7 7 7-7zM5 18v2h14v-2H5z"/><path d="M0 0h24v24H0z" fill="none"/></symbol><symbol id="drag" viewBox="0 0 44 36"><path d="M503,1409l8-8h-6v-18h-4v18h-6Zm18-26H509v3.98h12v28.06H485v-28.06h12V1383H485a4.012,4.012,0,0,0-4,4v28a4.012,4.012,0,0,0,4,4h36a4.012,4.012,0,0,0,4-4v-28A4.012,4.012,0,0,0,521,1383Z" transform="translate(-481 -1383)"/>
</symbol><symbol id="duplicados" viewBox="0 0 24 24">
<g>
<path d="M21,1h-8c-1.4,0-2.5,1.1-2.5,2.5v17c0,1.4,1.1,2.5,2.5,2.5h8c1.4,0,2.5-1.1,2.5-2.5v-17C23.5,2.1,22.4,1,21,1z M17,22
		c-0.8,0-1.5-0.7-1.5-1.5c0-0.8,0.7-1.5,1.5-1.5c0.8,0,1.5,0.7,1.5,1.5C18.5,21.3,17.8,22,17,22z M21.5,18h-9V4h9V18z"/>
	<path d="M8.5,4V3.5c0-0.9,0.3-1.8,0.8-2.5H4C2.6,1,1.5,2.1,1.5,3.5v17C1.5,21.9,2.6,23,4,23h5.3c-0.2-0.4-0.4-0.8-0.5-1.2
		C8.5,21.9,8.3,22,8,22c-0.8,0-1.5-0.7-1.5-1.5C6.5,19.7,7.2,19,8,19c0.2,0,0.3,0,0.5,0.1V18h-5V4H8.5z"/>
</g>
</symbol><symbol id="editar" viewBox="0 0 24 24"><path d="M3,17.3V21h3.8L17.8,9.9l-3.8-3.8L3,17.3z M20.7,7c0.4-0.4,0.4-1,0-1.4l-2.3-2.3c-0.4-0.4-1-0.4-1.4,0l-1.8,1.8l3.8,3.8	C18.9,8.9,20.7,7,20.7,7z"/></symbol><symbol id="email" viewBox="0 0 24 24"><path d="M20,4H4A2,2,0,0,0,2,6V18a2,2,0,0,0,2,2H20a2,2,0,0,0,2-2V6A2,2,0,0,0,20,4Zm0,14H4V8l8,5,8-5Zm-8-7L4,6H20Z"/></symbol><symbol id="empty" viewBox="0 0 41.032 41.032"><path d="M760.608,689.107h0.016l-3.957-3.957H756.65l-3.958-3.958h0.017l-3.958-3.958h-0.016l-3.958-3.957h0.017l-3.958-3.958h-0.017l-5.4-5.4L732.9,666.43l5.936,5.936v0.911h0.911l3.957,3.957H738.84v3.958h8.826l3.958,3.958H738.84v3.957h16.741l15.831,15.831,2.513-2.513Zm9.894-11.873H753.777l1.437,1.437,2.521,2.521H770.5v-3.958Zm0-3.957v-3.958h-24.64l3.958,3.958H770.5ZM738.84,697.023h19.789v-3.958H738.84v3.958Zm31.662-7.916V685.15h-8.809l3.957,3.957H770.5Z" transform="translate(-732.906 -663.906)"/>
</symbol><symbol id="enviando" viewBox="0 0 24 24">
<path d="M8 5v14l11-7z"/><path d="M0 0h24v24H0z" fill="none"/>
</symbol><symbol id="envios_cancelados" viewBox="0 0 24 24"><path d="M20.5,2.5H4.5a2,2,0,0,0-2,2v18l4-4h14a2,2,0,0,0,2-2V4.5A2,2,0,0,0,20.5,2.5Zm0,14H6.5l-2,2V4.5h16Zm-10.83-2L12.5,11.7l2.83,2.83,1.41-1.41-2.83-2.83,2.83-2.83L15.33,6,12.5,8.87,9.67,6,8.26,7.46l2.83,2.83L8.26,13.12Z"/></symbol><symbol id="erro" viewBox="0 0 4 18"><path d="M955,1438a2,2,0,1,1-2,2A2,2,0,0,1,955,1438Zm-2-14h4v12h-4v-12Z" transform="translate(-953 -1424)"/>
</symbol><symbol id="excluido" viewBox="0 0 18 22">
  <metadata><?xpacket begin="﻿" id="W5M0MpCehiHzreSzNTczkc9d"?>
<x:xmpmeta xmlns:x="adobe:ns:meta/" x:xmptk="Adobe XMP Core 5.6-c138 79.159824, 2016/09/14-01:09:01        ">
   <rdf:RDF xmlns:rdf="http://www.w3.org/1999/02/22-rdf-syntax-ns#">
      <rdf:Description rdf:about=""/>
   </rdf:RDF>
</x:xmpmeta>
                                                                                                    
                                                                                                    
                                                                                                    
                                                                                                    
                                                                                                    
                                                                                                    
                                                                                                    
                                                                                                    
                                                                                                    
                                                                                                    
                                                                                                    
                                                                                                    
                                                                                                    
                                                                                                    
                                                                                                    
                                                                                                    
                                                                                                    
                                                                                                    
                                                                                                    
                                                                                                    
                           
<?xpacket end="w"?></metadata>

  <path id="ico_excluido" class="cls-1" d="M887,1147.2l-1-1-4,4-4-4-1,1,4,4-4,4,1,1,4-4,4,4,1-1-4-4Zm6-7.2H883a2.006,2.006,0,0,0-2,2v3h2v-2h10v16H883v-2h-2v3a2.006,2.006,0,0,0,2,2h10a2.006,2.006,0,0,0,2-2v-18A2.006,2.006,0,0,0,893,1140Z" transform="translate(-877 -1140)"/>
</symbol><symbol id="filtrado" viewBox="0 0 24 24">
<path d="M10,18h4v-2h-4V18z M3,6v2h18V6H3z M6,13h12v-2H6V13z"/>
<path fill="none" d="M0,0h24v24H0V0z"/>
</symbol><symbol id="filtro" viewBox="0 0 24 24">
<path d="M10,18h4v-2h-4V18z M3,6v2h18V6H3z M6,13h12v-2H6V13z"/>
</symbol><symbol id="fornecedor" viewBox="0 0 24 24"><path d="M19 3h-1V1h-2v2H8V1H6v2H5c-1.11 0-2 .9-2 2v14c0 1.1.89 2 2 2h14c1.1 0 2-.9 2-2V5c0-1.1-.9-2-2-2zm-7 3c1.66 0 3 1.34 3 3s-1.34 3-3 3-3-1.34-3-3 1.34-3 3-3zm6 12H6v-1c0-2 4-3.1 6-3.1s6 1.1 6 3.1v1z"/></symbol><symbol id="foto" viewBox="0 0 20 18">
  <metadata><?xpacket begin="﻿" id="W5M0MpCehiHzreSzNTczkc9d"?>
<x:xmpmeta xmlns:x="adobe:ns:meta/" x:xmptk="Adobe XMP Core 5.6-c138 79.159824, 2016/09/14-01:09:01        ">
   <rdf:RDF xmlns:rdf="http://www.w3.org/1999/02/22-rdf-syntax-ns#">
      <rdf:Description rdf:about=""/>
   </rdf:RDF>
</x:xmpmeta>
                                                                                                    
                                                                                                    
                                                                                                    
                                                                                                    
                                                                                                    
                                                                                                    
                                                                                                    
                                                                                                    
                                                                                                    
                                                                                                    
                                                                                                    
                                                                                                    
                                                                                                    
                                                                                                    
                                                                                                    
                                                                                                    
                                                                                                    
                                                                                                    
                                                                                                    
                                                                                                    
                           
<?xpacket end="w"?></metadata>

  <path id="ico_photo" class="cls-1" d="M553,610l-1.83,2H548a2.006,2.006,0,0,0-2,2v12a2.006,2.006,0,0,0,2,2h16a2.006,2.006,0,0,0,2-2V614a2.006,2.006,0,0,0-2-2h-3.17L559,610h-6Zm3,15a5,5,0,1,1,5-5A5,5,0,0,1,556,625Z" transform="translate(-546 -610)"/>
</symbol><symbol id="grafico_linha" viewBox="0 0 24 24"><path d="M3.5,18.5l6-6l4,4L22,6.9l-1.4-1.4l-7.1,8l-4-4L2,17L3.5,18.5z"/></symbol><symbol id="grafico_pizza" viewBox="0 0 24 24"><path d="M12,2C6.5,2,2,6.5,2,12c0,5.5,4.5,10,10,10s10-4.5,10-10C22,6.5,17.5,2,12,2z M13,4.1c3.6,0.5,6.5,3.3,6.9,6.9H13V4.1z	 M4,12c0-4.1,3.1-7.4,7-7.9v15.9C7.1,19.4,4,16.1,4,12z M13,19.9V13h6.9C19.5,16.6,16.6,19.5,13,19.9z"/></symbol><symbol id="grupo_carteira" viewBox="0 0 24 24"><path d="M2,20V10V6C0.9,6,0,6.9,0,8l0,12c0,1.1,0.9,2,2,2h16c1.1,0,2-0.9,2-2h-2H2z"/><path d="M22,4h-8l-2-2H6C4.9,2,4,2.9,4,4l0,12c0,1.1,0.9,2,2,2h16c1.1,0,2-0.9,2-2V6C24,4.9,23.1,4,22,4z M22,16H6V6h16V16z"/></symbol><symbol id="higienizado" viewBox="0 0 24 24"><path d="M3,8.4l9,9l7-7V15h2V7h-8v2h4.6L12,14.6L4.4,7L3,8.4z"/></symbol><symbol id="historico" viewBox="0 0 24 24"><path d="M13 3c-4.97 0-9 4.03-9 9H1l3.89 3.89.07.14L9 12H6c0-3.87 3.13-7 7-7s7 3.13 7 7-3.13 7-7 7c-1.93 0-3.68-.79-4.94-2.06l-1.42 1.42C8.27 19.99 10.51 21 13 21c4.97 0 9-4.03 9-9s-4.03-9-9-9zm-1 5v5l4.28 2.54.72-1.21-3.5-2.08V8H12z"/></symbol><symbol id="hora" viewBox="0 0 24 24">
<path d="M11.99 2C6.47 2 2 6.48 2 12s4.47 10 9.99 10C17.52 22 22 17.52 22 12S17.52 2 11.99 2zM12 20c-4.42 0-8-3.58-8-8s3.58-8 8-8 8 3.58 8 8-3.58 8-8 8z"/>
<path d="M0 0h24v24H0z" fill="none"/>
<path d="M12.5 7H11v6l5.25 3.15.75-1.23-4.5-2.67z"/>
</symbol><symbol id="intervalo" viewBox="0 0 24 24">
    <path d="M0 0h24v24H0z" fill="none"/>
    <path d="M15 1H9v2h6V1zm-4 13h2V8h-2v6zm8.03-6.61l1.42-1.42c-.43-.51-.9-.99-1.41-1.41l-1.42 1.42C16.07 4.74 14.12 4 12 4c-4.97 0-9 4.03-9 9s4.02 9 9 9 9-4.03 9-9c0-2.12-.74-4.07-1.97-5.61zM12 20c-3.87 0-7-3.13-7-7s3.13-7 7-7 7 3.13 7 7-3.13 7-7 7z"/>
</symbol><symbol id="leiaute" viewBox="0 0 24 24"><path d="M711,1309h7v2h-7v-2Zm0-4h7v2h-7v-2Zm0-8h7v2h-7v-2Zm0,4h7v2h-7v-2Zm9,8h7v2h-7v-2Zm0-12h7v2h-7v-2Zm0,4h7v2h-7v-2Zm0,4h7v2h-7v-2Z" transform="translate(-707 -1292)"/>
</symbol><symbol id="leiaute_diferente" viewBox="0 0 22.969 22.97">
  <metadata><?xpacket begin="﻿" id="W5M0MpCehiHzreSzNTczkc9d"?>
<x:xmpmeta xmlns:x="adobe:ns:meta/" x:xmptk="Adobe XMP Core 5.6-c138 79.159824, 2016/09/14-01:09:01        ">
   <rdf:RDF xmlns:rdf="http://www.w3.org/1999/02/22-rdf-syntax-ns#">
      <rdf:Description rdf:about=""/>
   </rdf:RDF>
</x:xmpmeta>
                                                                                                    
                                                                                                    
                                                                                                    
                                                                                                    
                                                                                                    
                                                                                                    
                                                                                                    
                                                                                                    
                                                                                                    
                                                                                                    
                                                                                                    
                                                                                                    
                                                                                                    
                                                                                                    
                                                                                                    
                                                                                                    
                                                                                                    
                                                                                                    
                                                                                                    
                                                                                                    
                           
<?xpacket end="w"?></metadata>

  <path id="ico_leiaute_diferente" data-name="ico_leiaute diferente" class="cls-1" d="M709.069,1969.46h7.085v2.03h-7.085v-2.03Zm7.085,10.13v-2.03H711.6l2.025,2.03h2.53Zm-16.194,2.02h7.085v2.02H699.96v-2.02Zm16.194-6.07v-2.03h-7.085v1.52l0.506,0.51h6.579Zm-9.109-4.05v-2.03H703.5l2.025,2.03h1.518Zm11.842,15.89-21.66-21.66-1.316,1.21,6.579,6.58h-2.53v2.03h4.554l2.025,2.02H699.96v2.03h7.085v-1.42l3.441,3.44h-1.417v2.02h3.441l5.061,5.07Z" transform="translate(-695.906 -1965.72)"/>
</symbol><symbol id="liga_desliga" viewBox="0 0 24 24"><path id="liga_desliga" d="M1072,519h-2v10h2V519Zm4.83,2.17-1.42,1.42A6.92,6.92,0,0,1,1078,528a7,7,0,1,1-11.42-5.42l-1.41-1.41A9,9,0,1,0,1076.83,521.17Z" transform="translate(-1062 -519)"/></symbol><symbol id="lotes" viewBox="0 0 24 24">
    <path d="M4 8h4V4H4v4zm6 12h4v-4h-4v4zm-6 0h4v-4H4v4zm0-6h4v-4H4v4zm6 0h4v-4h-4v4zm6-10v4h4V4h-4zm-6 4h4V4h-4v4zm6 6h4v-4h-4v4zm0 6h4v-4h-4v4z"/>
    <path d="M0 0h24v24H0z" fill="none"/>
</symbol><symbol id="mais160" viewBox="0 0 24 24"><path d="M10.5,11L10,10.5L7.5,8L6,6.5L2.4,2.8L1.3,1.7L0,3l2,2l0,17l4-4h9l5.7,5.7l1.3-1.3L17.5,18C17.5,18,10.5,11,10.5,11z M8,14 H6v-2h2V14z M6,11V9l2,2H6z M20,2H4.1L10,7.9V6h8v2h-7.9l1,1H18v2h-4.9l7,7c1.1,0,1.9-0.9,1.9-2V4C22,2.9,21.1,2,20,2z"/></symbol><symbol id="mensagem" viewBox="0 0 16 14">
  <metadata><?xpacket begin="﻿" id="W5M0MpCehiHzreSzNTczkc9d"?>
<x:xmpmeta xmlns:x="adobe:ns:meta/" x:xmptk="Adobe XMP Core 5.6-c138 79.159824, 2016/09/14-01:09:01        ">
   <rdf:RDF xmlns:rdf="http://www.w3.org/1999/02/22-rdf-syntax-ns#">
      <rdf:Description rdf:about=""/>
   </rdf:RDF>
</x:xmpmeta>
                                                                                                    
                                                                                                    
                                                                                                    
                                                                                                    
                                                                                                    
                                                                                                    
                                                                                                    
                                                                                                    
                                                                                                    
                                                                                                    
                                                                                                    
                                                                                                    
                                                                                                    
                                                                                                    
                                                                                                    
                                                                                                    
                                                                                                    
                                                                                                    
                                                                                                    
                                                                                                    
                           
<?xpacket end="w"?></metadata>

  <path id="ico_texto" class="cls-1" d="M721,1550H711v2h10v-2Zm6-8H711v2h16v-2Zm-16,6h16v-2H711v2Zm0-10v2h16v-2H711Z" transform="translate(-711 -1538)"/>
</symbol><symbol id="moneo_ico" viewBox="0 0 24 24"><path d="M20.4,22L6,7.6v11.6H3.6V2l8.4,8.4L20.4,2V22z M13.6,12l4.4,4.4V7.6L13.6,12z"/></symbol><symbol id="moneo_negativo" viewBox="0 0 416.5 69"><style type="text/css">	.st0{fill:#FFFFFF;}	.st1{fill:#FF6F00;}</style><path class="st0" d="M203.9,27c-1.3-1.3-2.9-2.3-4.5-3c-1.7-0.7-3.5-1-5.4-1c-1.9,0-3.7,0.3-5.4,1c-1.7,0.7-3.2,1.7-4.6,3		c-1.3,1.3-2.4,2.8-3,4.5c-0.7,1.7-1,3.4-1,5.3c0,1.9,0.3,3.7,1,5.3c0.7,1.6,1.7,3.1,3,4.4c1.3,1.3,2.8,2.3,4.5,3		c1.7,0.7,3.5,1,5.4,1c1.9,0,3.6-0.3,5.3-1c1.7-0.7,3.2-1.7,4.6-3c1.3-1.3,2.4-2.8,3.1-4.4c0.7-1.7,1-3.4,1-5.3c0-1.9-0.3-3.6-1-5.3		C206.2,29.8,205.2,28.3,203.9,27z M202.8,40.5c-0.5,1.2-1.2,2.2-2.1,3.2c-0.9,0.9-2,1.6-3.1,2.1c-1.2,0.5-2.4,0.7-3.6,0.7		c-1.3,0-2.5-0.2-3.7-0.7c-1.2-0.5-2.2-1.2-3.1-2.1c-0.9-0.9-1.6-2-2.1-3.2c-0.5-1.2-0.7-2.4-0.7-3.8c0-1.3,0.2-2.6,0.7-3.8		c0.5-1.2,1.2-2.3,2.1-3.2c0.9-0.9,1.9-1.6,3.1-2.1c1.2-0.5,2.4-0.7,3.7-0.7c1.3,0,2.5,0.2,3.7,0.7c1.2,0.5,2.2,1.2,3.1,2.1		c0.9,0.9,1.6,2,2.1,3.2c0.5,1.2,0.7,2.5,0.7,3.8C203.5,38.1,203.3,39.4,202.8,40.5z"/><path class="st0" d="M275,41.8c-0.5-0.6-1-1.2-1.5-1.7c-0.5-0.5-0.9-1-1.4-1.5l-16.7-16v27.3h3.9V31.6c0.4,0.5,0.8,1.1,1.2,1.5		c0.4,0.5,0.9,1,1.3,1.4l17,16.3V23.6H275V41.8z"/><path class="st0" d="M106,22.6v27.3h3.9V31.6c0.4,0.5,0.8,1.1,1.2,1.5c0.4,0.5,0.9,1,1.3,1.4l7.2,7l0,0l7.2-7		c0.5-0.4,0.9-0.9,1.3-1.4c0.4-0.5,0.8-1,1.2-1.5v18.2h3.9V22.6l-13.7,13.2L106,22.6z"/><path class="st0" d="M415.4,31.5c-0.7-1.7-1.7-3.2-3.1-4.5c-1.3-1.3-2.9-2.3-4.5-3c-1.7-0.7-3.5-1-5.4-1c-1.9,0-3.7,0.3-5.4,1		c-1.7,0.7-3.2,1.7-4.6,3c-1.3,1.3-2.4,2.8-3,4.5c-0.7,1.7-1,3.4-1,5.3c0,1.9,0.3,3.7,1,5.3c0.7,1.6,1.7,3.1,3,4.4		c1.3,1.3,2.8,2.3,4.5,3c1.7,0.7,3.5,1,5.4,1c1.9,0,3.6-0.3,5.3-1c1.7-0.7,3.2-1.7,4.6-3c1.3-1.3,2.4-2.8,3.1-4.4		c0.7-1.7,1-3.4,1-5.3C416.5,34.9,416.1,33.2,415.4,31.5z M411.3,40.5c-0.5,1.2-1.2,2.2-2.1,3.2c-0.9,0.9-2,1.6-3.1,2.1		c-1.2,0.5-2.4,0.7-3.6,0.7c-1.3,0-2.5-0.2-3.7-0.7c-1.2-0.5-2.2-1.2-3.1-2.1c-0.9-0.9-1.6-2-2.1-3.2c-0.5-1.2-0.7-2.4-0.7-3.8		c0-1.3,0.2-2.6,0.7-3.8c0.5-1.2,1.2-2.3,2.1-3.2c0.9-0.9,1.9-1.6,3.1-2.1c1.2-0.5,2.4-0.7,3.7-0.7c1.3,0,2.5,0.2,3.7,0.7		c1.2,0.5,2.2,1.2,3.1,2.1c0.9,0.9,1.6,2,2.1,3.2c0.5,1.2,0.7,2.5,0.7,3.8C412,38.1,411.8,39.4,411.3,40.5z"/><path class="st1" d="M0,0v59.3h8V19.4L57.6,69V0L28.8,28.8L0,0z M49.6,19.4v30.2L34.5,34.5L49.6,19.4z"/><rect x="326.1" y="45.4" class="st1" width="17.5" height="4.5"/><rect x="326.1" y="34.5" class="st1" width="17.5" height="4.5"/><rect x="326.1" y="23.6" class="st1" width="17.5" height="4.5"/></symbol><symbol id="moneo_negativo_vertical" viewBox="0 0 319 297.2"><style>.cls-2 {fill: #ff6f00;}   .cls-4 {fill: #fff;}</style><path class="cls-2" d="M621.5,186.54l44-44v88ZM688.91,86l-84,84L521,86h0V258.8h23.42V142.54L688.91,287.07V86h0Z" transform="translate(-445 -86)"/><path class="cls-4" d="M456.31,369a6.33,6.33,0,0,0-2-1.51A5.58,5.58,0,0,0,452,367a5.28,5.28,0,0,0-3.74,1.59,5.21,5.21,0,0,0-1.13,1.74,5.78,5.78,0,0,0-.38,2.12,6,6,0,0,0,.22,1.68,4.81,4.81,0,0,0,.67,1.41,5.44,5.44,0,0,0,1.94,1.72,5.44,5.44,0,0,0,4.81.09,6.09,6.09,0,0,0,2-1.55v2.07a7.44,7.44,0,0,1-2.1,1.07,7.52,7.52,0,0,1-2.32.36,6.71,6.71,0,0,1-2-.31,6.72,6.72,0,0,1-4.79-6.52,7.22,7.22,0,0,1,.51-2.75,6.63,6.63,0,0,1,1.54-2.25,6.72,6.72,0,0,1,2.22-1.44,7.19,7.19,0,0,1,2.66-.48,7.09,7.09,0,0,1,2.2.34,7.92,7.92,0,0,1,2.1,1.07v2Z" transform="translate(-445 -86)"/><path class="cls-4" d="M475.3,372.47a6.79,6.79,0,0,1-.52,2.65,6.6,6.6,0,0,1-1.51,2.21,7.11,7.11,0,0,1-9.92,0,6.66,6.66,0,0,1-2-4.86,6.8,6.8,0,0,1,.52-2.65,6.71,6.71,0,0,1,1.53-2.22,7,7,0,0,1,2.27-1.47,7.19,7.19,0,0,1,5.36,0,7,7,0,0,1,2.28,1.47,6.58,6.58,0,0,1,1.51,2.21,6.84,6.84,0,0,1,.52,2.66m-7,5.4a5.23,5.23,0,0,0,2-.41,5.43,5.43,0,0,0,1.75-1.19,5.29,5.29,0,0,0,1.57-3.81,5.47,5.47,0,0,0-.41-2.09,5.33,5.33,0,0,0-5-3.33,5.37,5.37,0,0,0-2.07.4,5.15,5.15,0,0,0-1.73,1.17,5.45,5.45,0,0,0,1.75,8.85,5.25,5.25,0,0,0,2,.4" transform="translate(-445 -86)"/><polygon class="cls-4" points="41.87 293.5 37.8 284.09 36.15 292.99 34.63 292.99 37.29 279.38 41.87 290.21 46.45 279.38 49.1 292.99 47.58 292.99 45.92 284.09 41.87 293.5"/><path class="cls-4" d="M499,365.9h1.57V374a4.24,4.24,0,0,0,.85,2.92,4.25,4.25,0,0,0,5.31,0,4.24,4.24,0,0,0,.84-2.92V365.9h1.58V374a5.55,5.55,0,0,1-1.26,4,6.16,6.16,0,0,1-7.62,0,5.55,5.55,0,0,1-1.27-4V365.9Z" transform="translate(-445 -86)"/><polygon class="cls-4" points="70.17 292.99 70.17 279.38 79.75 289.85 79.75 279.9 81.23 279.9 81.23 293.5 71.65 283.15 71.65 292.99 70.17 292.99"/><rect class="cls-4" x="87.31" y="279.9" width="1.56" height="13.09"/><path class="cls-4" d="M550.59,369a6.32,6.32,0,0,0-2-1.51,5.58,5.58,0,0,0-2.35-.49,5.28,5.28,0,0,0-3.74,1.59,5.21,5.21,0,0,0-1.13,1.74,5.78,5.78,0,0,0-.38,2.12,6,6,0,0,0,.22,1.68,4.81,4.81,0,0,0,.67,1.41,5.44,5.44,0,0,0,1.94,1.72,5.44,5.44,0,0,0,4.81.09,6.09,6.09,0,0,0,2-1.55v2.07a7.44,7.44,0,0,1-2.1,1.07,7.52,7.52,0,0,1-2.32.36,6.71,6.71,0,0,1-2-.31,6.72,6.72,0,0,1-4.79-6.52,7.22,7.22,0,0,1,.51-2.75,6.62,6.62,0,0,1,1.54-2.25,6.71,6.71,0,0,1,2.22-1.44,7.19,7.19,0,0,1,2.66-.48,7.09,7.09,0,0,1,2.2.34,7.92,7.92,0,0,1,2.1,1.07v2Z" transform="translate(-445 -86)"/><path class="cls-4" d="M560.32,365.38l6,13.61h-1.69l-1.7-4h-5.12l-1.7,4h-1.69Zm0,3.44-2.09,4.82h4.17Z" transform="translate(-445 -86)"/><path class="cls-4" d="M581.18,369a6.33,6.33,0,0,0-2-1.51,5.59,5.59,0,0,0-2.35-.49,5.28,5.28,0,0,0-3.74,1.59,5.22,5.22,0,0,0-1.13,1.74,5.8,5.8,0,0,0-.37,2.12,6,6,0,0,0,.22,1.68,4.78,4.78,0,0,0,.67,1.41,5.44,5.44,0,0,0,1.94,1.72,5.44,5.44,0,0,0,4.81.08,6.11,6.11,0,0,0,2-1.55v2.07a7.45,7.45,0,0,1-2.1,1.07,7.52,7.52,0,0,1-2.32.36,6.7,6.7,0,0,1-2-.31,6.86,6.86,0,0,1-1.84-.9,6.65,6.65,0,0,1-2.94-5.63,7.22,7.22,0,0,1,.5-2.75,6.61,6.61,0,0,1,1.54-2.25,6.72,6.72,0,0,1,2.22-1.44,7.19,7.19,0,0,1,2.66-.48,7.09,7.09,0,0,1,2.2.34,8,8,0,0,1,2.1,1.07v2Zm-6.73,13.77v-0.89q0.71,0.16,1.28.25a6.07,6.07,0,0,0,.92.09,1.46,1.46,0,0,0,.81-0.18,0.62,0.62,0,0,0,.27-0.55,0.64,0.64,0,0,0-.29-0.58,1.71,1.71,0,0,0-.91-0.19h-0.48V379h0.68v0.91H577a2.31,2.31,0,0,1,1.48.41,1.66,1.66,0,0,1-.06,2.45,2.72,2.72,0,0,1-1.66.43,6.12,6.12,0,0,1-1-.1,12.8,12.8,0,0,1-1.27-.3" transform="translate(-445 -86)"/><path class="cls-4" d="M590.91,365.38l6,13.61h-1.69l-1.7-4h-5.12l-1.7,4H585Zm2.64-3.27a2.76,2.76,0,0,1-.63,1.39,1.49,1.49,0,0,1-1.13.48l-0.27,0-0.32-.07-0.86-.23-0.23-.06-0.21,0a0.76,0.76,0,0,0-.48.16,1.09,1.09,0,0,0-.33.45h-0.79a2.63,2.63,0,0,1,.61-1.36,1.47,1.47,0,0,1,1.12-.47l0.29,0,0.24,0.05,0.88,0.26,0.3,0.07,0.18,0a0.8,0.8,0,0,0,.51-0.16,1.09,1.09,0,0,0,.34-0.49h0.79Zm-2.64,6.72-2.08,4.82H593Z" transform="translate(-445 -86)"/><path class="cls-4" d="M614.55,372.47a6.81,6.81,0,0,1-.52,2.65,6.61,6.61,0,0,1-1.51,2.21,7.11,7.11,0,0,1-9.92,0,6.66,6.66,0,0,1-2.05-4.86,6.8,6.8,0,0,1,.52-2.65,6.69,6.69,0,0,1,1.53-2.22,7,7,0,0,1,2.27-1.47,7.19,7.19,0,0,1,5.37,0,7,7,0,0,1,2.28,1.47,6.59,6.59,0,0,1,1.51,2.21,6.86,6.86,0,0,1,.52,2.66m-7,5.4a5.23,5.23,0,0,0,2-.41,5.43,5.43,0,0,0,1.75-1.19,5.31,5.31,0,0,0,1.57-3.81,5.47,5.47,0,0,0-.41-2.09,5.33,5.33,0,0,0-5-3.33,5.37,5.37,0,0,0-2.07.4,5.15,5.15,0,0,0-1.73,1.17,5.45,5.45,0,0,0,1.75,8.85,5.25,5.25,0,0,0,2,.4" transform="translate(-445 -86)"/><rect class="cls-4" x="183.37" y="279.9" width="1.56" height="13.09"/><polygon class="cls-4" points="191.03 292.99 191.03 279.38 200.6 289.85 200.6 279.9 202.09 279.9 202.09 293.5 192.51 283.15 192.51 292.99 191.03 292.99"/><polygon class="cls-4" points="210.44 292.99 210.44 281.38 206.74 281.38 206.74 279.9 215.7 279.9 215.7 281.38 212.01 281.38 212.01 292.99 210.44 292.99"/><polygon class="cls-4" points="220.37 292.99 220.37 279.9 227.27 279.9 227.27 281.32 221.92 281.32 221.92 285.08 227.27 285.08 227.27 286.53 221.92 286.53 221.92 291.54 227.27 291.54 227.27 292.99 220.37 292.99"/><polygon class="cls-4" points="232.84 292.99 232.84 279.9 234.4 279.9 234.4 291.51 239.34 291.51 239.34 292.99 232.84 292.99"/><rect class="cls-4" x="244.14" y="279.9" width="1.56" height="13.09"/><path class="cls-4" d="M704,372.23h5.4v0.44a6.68,6.68,0,0,1-1.75,4.88,6.39,6.39,0,0,1-4.79,1.79,7.65,7.65,0,0,1-1.76-.2,6.39,6.39,0,0,1-1.54-.57,6.24,6.24,0,0,1-2.49-2.45,7.12,7.12,0,0,1-.88-3.55,7.93,7.93,0,0,1,.52-3,6.44,6.44,0,0,1,1.58-2.32,5.9,5.9,0,0,1,2.06-1.27,7.47,7.47,0,0,1,2.59-.43,7.34,7.34,0,0,1,3.27.68,5.84,5.84,0,0,1,2.3,2.06l-1.3,1a4.81,4.81,0,0,0-1.76-1.78A4.91,4.91,0,0,0,703,367a4.81,4.81,0,0,0-3.7,1.54,5.69,5.69,0,0,0-1.42,4,5.32,5.32,0,0,0,1.44,3.85,4.88,4.88,0,0,0,3.68,1.5,4.68,4.68,0,0,0,3.28-1.19,4.49,4.49,0,0,0,1.45-3.11H704v-1.4Z" transform="translate(-445 -86)"/><polygon class="cls-4" points="269.64 292.99 269.64 279.9 276.54 279.9 276.54 281.32 271.19 281.32 271.19 285.08 276.54 285.08 276.54 286.53 271.19 286.53 271.19 291.54 276.54 291.54 276.54 292.99 269.64 292.99"/><polygon class="cls-4" points="282.11 292.99 282.11 279.38 291.69 289.85 291.69 279.9 293.17 279.9 293.17 293.5 283.59 283.15 283.59 292.99 282.11 292.99"/><polygon class="cls-4" points="301.52 292.99 301.52 281.38 297.82 281.38 297.82 279.9 306.78 279.9 306.78 281.38 303.1 281.38 303.1 292.99 301.52 292.99"/><polygon class="cls-4" points="311.45 292.99 311.45 279.9 318.36 279.9 318.36 281.32 313.01 281.32 313.01 285.08 318.36 285.08 318.36 286.53 313.01 286.53 313.01 291.54 318.36 291.54 318.36 292.99 311.45 292.99"/><path class="cls-4" d="M545.54,315.64a14.31,14.31,0,0,0-4.67-3.06,15.08,15.08,0,0,0-11.06,0,14.27,14.27,0,0,0-4.68,3.06,13.87,13.87,0,0,0-3.13,4.58,14.45,14.45,0,0,0,0,10.9,13.71,13.71,0,0,0,3.13,4.55,14.3,14.3,0,0,0,4.67,3.07,14.57,14.57,0,0,0,5.55,1.08,14.37,14.37,0,0,0,5.49-1.07,14.76,14.76,0,0,0,4.7-3.07,14,14,0,0,0,3.14-15.42,14.16,14.16,0,0,0-3.14-4.61m-1.1,13.89a10.09,10.09,0,0,1-2.15,3.27,9.88,9.88,0,0,1-3.19,2.19,9.48,9.48,0,0,1-3.75.75,9.59,9.59,0,0,1-7-2.95,10,10,0,0,1-2.14-3.26,10.22,10.22,0,0,1-.74-3.87,10.42,10.42,0,0,1,.74-3.9,9.75,9.75,0,0,1,2.14-3.26,9.74,9.74,0,0,1,10.76-2.18,9.48,9.48,0,0,1,3.16,2.18,10.09,10.09,0,0,1,2.15,3.28,10.25,10.25,0,0,1,.74,3.88,10.13,10.13,0,0,1-.74,3.86" transform="translate(-445 -86)"/><path class="cls-4" d="M618.58,330.83q-0.79-1-1.51-1.79t-1.42-1.49l-17.12-16.48v28h4V320.35q0.59,0.83,1.24,1.58t1.35,1.44l17.47,16.77v-28h-4.05v18.69Z" transform="translate(-445 -86)"/><path class="cls-4" d="M445,311.07v28h4V320.35q0.59,0.83,1.24,1.58t1.35,1.44l7.44,7.14h0l7.44-7.14q0.7-.68,1.35-1.44t1.24-1.58V339.1h4v-28l-14.07,13.54Z" transform="translate(-445 -86)"/><path class="cls-4" d="M762.92,320.25a14.16,14.16,0,0,0-3.14-4.61,14.31,14.31,0,0,0-4.67-3.06,15.08,15.08,0,0,0-11.06,0,14.28,14.28,0,0,0-4.68,3.06,13.85,13.85,0,0,0-3.13,4.58,14.44,14.44,0,0,0,0,10.9,13.69,13.69,0,0,0,3.13,4.55,14.3,14.3,0,0,0,4.67,3.07,14.57,14.57,0,0,0,5.55,1.08,14.37,14.37,0,0,0,5.49-1.07,14.75,14.75,0,0,0,4.7-3.07,14,14,0,0,0,3.14-15.42m-4.23,9.28a10.07,10.07,0,0,1-2.15,3.27,9.88,9.88,0,0,1-3.19,2.19,9.48,9.48,0,0,1-3.75.75,9.59,9.59,0,0,1-7-2.95,10,10,0,0,1-2.14-3.26,10.22,10.22,0,0,1-.74-3.87,10.42,10.42,0,0,1,.74-3.9,9.76,9.76,0,0,1,2.14-3.26,9.74,9.74,0,0,1,10.76-2.18,9.48,9.48,0,0,1,3.16,2.18,10.07,10.07,0,0,1,2.15,3.28,10.25,10.25,0,0,1,.75,3.88,10.13,10.13,0,0,1-.75,3.86" transform="translate(-445 -86)"/><rect class="cls-2" x="226.1" y="248.51" width="17.95" height="4.58"/><rect class="cls-2" x="226.1" y="237.33" width="17.95" height="4.58"/><rect class="cls-2" x="226.1" y="226.14" width="17.95" height="4.58"/></symbol><symbol id="na" viewBox="0 0 24 24">
<path d="M18,11H6v2h12V11z"/>
</symbol><symbol id="ok" viewBox="0 0 24 24"><path d="M12,4c-5,0-9,4-9,9s4,9,9,9c5,0,9-4,9-9S17,4,12,4z M12,20c-3.9,0-7-3.1-7-7s3.1-7,7-7s7,3.1,7,7S15.9,20,12,20z M10.5,14.5	l-2.1-2.1l-1.1,1.1l3.2,3.2l6-6l-1.1-1.1C15.5,9.6,10.5,14.5,10.5,14.5z"/></symbol><symbol id="padroes" viewBox="0 0 18 18">
  <metadata><?xpacket begin="﻿" id="W5M0MpCehiHzreSzNTczkc9d"?>
<x:xmpmeta xmlns:x="adobe:ns:meta/" x:xmptk="Adobe XMP Core 5.6-c138 79.159824, 2016/09/14-01:09:01        ">
   <rdf:RDF xmlns:rdf="http://www.w3.org/1999/02/22-rdf-syntax-ns#">
      <rdf:Description rdf:about=""/>
   </rdf:RDF>
</x:xmpmeta>
                                                                                                    
                                                                                                    
                                                                                                    
                                                                                                    
                                                                                                    
                                                                                                    
                                                                                                    
                                                                                                    
                                                                                                    
                                                                                                    
                                                                                                    
                                                                                                    
                                                                                                    
                                                                                                    
                                                                                                    
                                                                                                    
                                                                                                    
                                                                                                    
                                                                                                    
                                                                                                    
                           
<?xpacket end="w"?></metadata>

  <path id="ico_padr&#xE3;o" class="cls-1" d="M540.55,1161.22l-1.39-1.68A1.509,1.509,0,0,0,538,1159H526a1.451,1.451,0,0,0-1.15.55l-1.39,1.67a1.985,1.985,0,0,0-.46,1.28V1175a2,2,0,0,0,2,2h14a2.006,2.006,0,0,0,2-2v-12.5A2.033,2.033,0,0,0,540.55,1161.22ZM532,1165.5l5.5,5.5H534v2h-4v-2h-3.5Zm-6.88-4.5,0.82-1h12l0.93,1H525.12Z" transform="translate(-523 -1159)"/>
</symbol><symbol id="perfil" viewBox="0 0 24 24"><path d="M19,3h-4.2c-0.4-1.2-1.5-2-2.8-2S9.6,1.8,9.2,3H5C3.9,3,3,3.9,3,5v14c0,1.1,0.9,2,2,2h14c1.1,0,2-0.9,2-2V5	C21,3.9,20.1,3,19,3z M12,3c0.6,0,1,0.5,1,1s-0.4,1-1,1s-1-0.4-1-1S11.4,3,12,3z M12,7c1.7,0,3,1.3,3,3s-1.3,3-3,3s-3-1.3-3-3	S10.3,7,12,7z M18,19H6v-1.4c0-2,4-3.1,6-3.1s6,1.1,6,3.1V19z"/></symbol><symbol id="permissao" viewBox="0 0 24 24"><path d="M18,8h-1V6c0-2.8-2.2-5-5-5S7,3.2,7,6v2H6c-1.1,0-2,0.9-2,2v10c0,1.1,0.9,2,2,2h12c1.1,0,2-0.9,2-2V10C20,8.9,19.1,8,18,8z	 M12,17c-1.1,0-2-0.9-2-2s0.9-2,2-2s2,0.9,2,2S13.1,17,12,17z M15.1,8H8.9V6c0-1.7,1.4-3.1,3.1-3.1s3.1,1.4,3.1,3.1V8z"/></symbol><symbol id="print" viewBox="0 0 24 24"><path d="M19,8H5c-1.7,0-3,1.3-3,3v6h4v4h12v-4h4v-6C22,9.3,20.7,8,19,8z M16,19H8v-5h8V19z M19,12c-0.5,0-1-0.4-1-1	s0.5-1,1-1s1,0.4,1,1S19.5,12,19,12z M18,3H6v4h12V3z"/></symbol><symbol id="ratinhos" viewBox="0 0 20 20">
  <metadata><?xpacket begin="﻿" id="W5M0MpCehiHzreSzNTczkc9d"?>
<x:xmpmeta xmlns:x="adobe:ns:meta/" x:xmptk="Adobe XMP Core 5.6-c138 79.159824, 2016/09/14-01:09:01        ">
   <rdf:RDF xmlns:rdf="http://www.w3.org/1999/02/22-rdf-syntax-ns#">
      <rdf:Description rdf:about=""/>
   </rdf:RDF>
</x:xmpmeta>
                                                                                                    
                                                                                                    
                                                                                                    
                                                                                                    
                                                                                                    
                                                                                                    
                                                                                                    
                                                                                                    
                                                                                                    
                                                                                                    
                                                                                                    
                                                                                                    
                                                                                                    
                                                                                                    
                                                                                                    
                                                                                                    
                                                                                                    
                                                                                                    
                                                                                                    
                                                                                                    
                           
<?xpacket end="w"?></metadata>

  <path id="ratinhos" class="cls-1" d="M389.07,1635.93l-1.41,1.41a8.009,8.009,0,1,1-6.66-2.27v2.02a6,6,0,1,0,5.24,1.67l-1.41,1.41a4.01,4.01,0,1,1-3.83-1.03v2.14a1.98,1.98,0,0,0-1,1.72,2,2,0,0,0,4,0,1.968,1.968,0,0,0-1-1.72V1633h-1A10,10,0,1,0,389.07,1635.93Z" transform="translate(-372 -1633)"/>
</symbol><symbol id="reagendar" viewBox="0 0 24 24">
<g>
	<rect x="7" y="10" width="2" height="2"/>
	<rect x="11" y="10" width="2" height="2"/>
	<rect x="15" y="10" width="2" height="2"/>
	<path d="M22,19.5l-5-5V18H5V8h14v4.2l2,2V5c0-1.1-0.9-2-2-2h-1V1h-2v2H8V1H6v2H5C3.9,3,3,3.9,3,5v14c0,1.1,0.9,2,2,2h12v3.5
		L22,19.5z"/>
</g>
</symbol><symbol id="registros" viewBox="0 0 24 24"><path d="M3,21h18v-2H3V21z M3,17h18v-2H3V17z M3,13h18v-2H3V13z M3,9h18V7H3V9z M3,3v2h18V3H3z"/></symbol><symbol id="remover" viewBox="0 0 20 20">
  <metadata><?xpacket begin="﻿" id="W5M0MpCehiHzreSzNTczkc9d"?>
<x:xmpmeta xmlns:x="adobe:ns:meta/" x:xmptk="Adobe XMP Core 5.6-c138 79.159824, 2016/09/14-01:09:01        ">
   <rdf:RDF xmlns:rdf="http://www.w3.org/1999/02/22-rdf-syntax-ns#">
      <rdf:Description rdf:about=""/>
   </rdf:RDF>
</x:xmpmeta>
                                                                                                    
                                                                                                    
                                                                                                    
                                                                                                    
                                                                                                    
                                                                                                    
                                                                                                    
                                                                                                    
                                                                                                    
                                                                                                    
                                                                                                    
                                                                                                    
                                                                                                    
                                                                                                    
                                                                                                    
                                                                                                    
                                                                                                    
                                                                                                    
                                                                                                    
                                                                                                    
                           
<?xpacket end="w"?></metadata>

  <path id="ico_remover" class="cls-1" d="M604,609a10,10,0,1,0,10,10A9.991,9.991,0,0,0,604,609Zm5,13.59L607.59,624,604,620.41,600.41,624,599,622.59l3.59-3.59L599,615.41l1.41-1.41,3.59,3.59,3.59-3.59,1.41,1.41L605.41,619Z" transform="translate(-594 -609)"/>
</symbol><symbol id="remover2" viewBox="0 0 24 24">
    <path d="M0 0h24v24H0z" fill="none"/>
    <path d="M14.59 8L12 10.59 9.41 8 8 9.41 10.59 12 8 14.59 9.41 16 12 13.41 14.59 16 16 14.59 13.41 12 16 9.41 14.59 8zM12 2C6.47 2 2 6.47 2 12s4.47 10 10 10 10-4.47 10-10S17.53 2 12 2zm0 18c-4.41 0-8-3.59-8-8s3.59-8 8-8 8 3.59 8 8-3.59 8-8 8z"/>
</symbol><symbol id="renovar" viewBox="0 0 24 24"><path d="M12,6v3l4-4l-4-4v3c-4.4,0-8,3.6-8,8c0,1.6,0.5,3,1.2,4.3l1.5-1.5C6.3,14,6,13,6,12C6,8.7,8.7,6,12,6z M18.8,7.7l-1.5,1.5	C17.7,10,18,11,18,12c0,3.3-2.7,6-6,6v-3l-4,4l4,4v-3c4.4,0,8-3.6,8-8C20,10.4,19.5,9,18.8,7.7z"/></symbol><symbol id="restaurar" viewBox="0 0 24 24"><path d="M14,12c0-1.1-0.9-2-2-2s-2,0.9-2,2s0.9,2,2,2S14,13.1,14,12z M12,3c-5,0-9,4-9,9H0l4,4l4-4H5c0-3.9,3.1-7,7-7s7,3.1,7,7	s-3.1,7-7,7c-1.5,0-2.9-0.5-4.1-1.3l-1.4,1.4C8,20.3,9.9,21,12,21c5,0,9-4,9-9S17,3,12,3z"/></symbol><symbol id="restaurar_usuario" viewBox="0 0 24 24">
<path d="M12,14.9c1.7,0,3-1.4,3-3s-1.4-3-3-3s-3,1.4-3,3S10.3,14.9,12,14.9z M12,16.4c-2.1,0-6.1,1-6.1,3V21h12.2v-1.5
	C18.1,17.4,14.1,16.4,12,16.4z"/>
<path d="M5,12c0-3.9,3.1-7,7-7s7,3.1,7,7c0,1.7-0.6,3.2-1.5,4.4c0.6,0.4,1.1,0.8,1.5,1.3c1.3-1.5,2-3.5,2-5.7c0-5-4-9-9-9s-9,4-9,9
	H0l4,4l4-4H5z"/>
</symbol><symbol id="retorno" viewBox="0 0 24 24">
<g>
	<path d="M20.4,7H19v2h1v9.2l-0.4-0.4h-0.8H8v-1H6v1.4c0,0.9,0.7,1.6,1.6,1.6h11.2L22,23V8.6C22,7.7,21.3,7,20.4,7z"/>
	<path d="M17,13.2V3.6C17,2.7,16.3,2,15.4,2H2.6C1.7,2,1,2.7,1,3.6V18l3.2-3.2h11.2C16.3,14.8,17,14.1,17,13.2z M15,12.8H4.2H3.4
		L3,13.2V4h12V12.8z"/>
</g>
</symbol><symbol id="ruim" viewBox="0 0 24 24">
    <path d="M0 0h24v24H0z" fill="none"/>
    <path d="M15 3H6c-.83 0-1.54.5-1.84 1.22l-3.02 7.05c-.09.23-.14.47-.14.73v1.91l.01.01L1 14c0 1.1.9 2 2 2h6.31l-.95 4.57-.03.32c0 .41.17.79.44 1.06L9.83 23l6.59-6.59c.36-.36.58-.86.58-1.41V5c0-1.1-.9-2-2-2zm4 0v12h4V3h-4z"/>
</symbol><symbol id="sair" viewBox="0 0 24 24"><polygon points="10.1,15.6 11.5,17 16.5,12 11.5,7 10.1,8.4 12.7,11 3,11 3,13 12.7,13 	"/><path d="M19,3H5C3.9,3,3,3.9,3,5v4h2V5h14v14H5v-4H3v4c0,1.1,0.9,2,2,2h14c1.1,0,2-0.9,2-2V5C21,3.9,20.1,3,19,3z"/></symbol><symbol id="sem_acesso" viewBox="0 0 24 24"><path d="M18,11H6v2h12V11z"/></symbol><symbol id="semcarteira" viewBox="0 0 24 24">
<g>
	<path d="M20,8v9.5l1.6,1.6c0.2-0.3,0.4-0.7,0.4-1.1V8c0-1.1-0.9-2-2-2h-8l-2-2H6.5l4,4H20z"/>
	<path d="M1.3,1.3L0,2.5l2.4,2.4C2.1,5.2,2,5.6,2,6l0,12c0,1.1,0.9,2,2,2h13.4l4,4l1.3-1.3L1.3,1.3z M4,18V8h1.5l10,10H4z"/>
</g>
</symbol><symbol id="semfornecedor" viewBox="0 0 24 24">
<g>
	<path d="M1.3,1.3L0,2.5l3,3V19c0,1.1,0.9,2,2,2h13.4l3,3l1.3-1.3L1.3,1.3z M6,18v-1c0-1.8,3.3-2.9,5.4-3.1l4,4.1H6z"/>
	<path d="M12,6c1.7,0,3,1.3,3,3c0,1-0.5,1.8-1.1,2.3l7.1,7.1V5c0-1.1-0.9-2-2-2h-1V1h-2v2H8V1H6v2H5.5l4.1,4.1C10.2,6.5,11,6,12,6z"/>
</g>
</symbol><symbol id="sempadrao" viewBox="0 0 24 24"><path d="M17.9,4l0.9,1H7.5L21,18.5v-12c0-0.5-0.2-0.9-0.5-1.3l-1.4-1.7C18.9,3.2,18.5,3,18,3H6C5.8,3,5.7,3,5.6,3.1L6.5,4H17.9z"/><path d="M1.3,1.3L0,2.5l3.2,3.2C3.1,6,3,6.2,3,6.5V19c0,1.1,0.9,2,2,2h13.4l3,3l1.3-1.3L1.3,1.3z M14,17h-4v-2H6.5l3-3l4.5,4.5V17z		"/></symbol><symbol id="semtipo" viewBox="0 0 24 24">
<g>
	<path d="M20,4v12h-1.5l1.9,1.9c0.9-0.2,1.6-1,1.6-1.9V4c0-1.1-0.9-2-2-2H4.5l2,2H20z"/>
	<path d="M1.3,1.3L0,2.5l2,2V22l4-4h9.4l6,6l1.3-1.3L1.3,1.3z M6,16l-2,2V6.5l9.4,9.5H6z"/>
</g>
</symbol><symbol id="smartphone" viewBox="0 0 24 24">
    <path d="M0 0h24v24H0z" fill="none"/>
    <path d="M17 1.01L7 1c-1.1 0-2 .9-2 2v18c0 1.1.9 2 2 2h10c1.1 0 2-.9 2-2V3c0-1.1-.9-1.99-2-1.99zM17 19H7V5h10v14z"/>
</symbol><symbol id="sms" viewBox="0 0 24 24"><path d="M20,2H4C2.9,2,2,2.9,2,4v18l4-4h14c1.1,0,2-0.9,2-2V4C22,2.9,21.1,2,20,2z M20,16H6l-2,2V4h16V16z"/><rect x="6" y="9" width="12" height="2"/><rect x="6" y="12" width="8" height="2"/><rect x="6" y="6" width="12" height="2"/></symbol><symbol id="sms_rapido" viewBox="0 0 36 36"><path d="M30.9,9H14.4c-1.1,0-2.1,0.8-2.1,1.9l0,18.4l4.1-4.3h14.5c1.1,0,2.1-0.7,2.1-1.9V10.7C33,9.6,32.1,9,30.9,9z		 M25,21h-9v-2h9V21z M29,18H16v-2h13V18z M29,15H16v-2h13V15z"/><rect x="6" y="20" width="4" height="2"/><rect x="3" y="12" width="7" height="2"/><rect x="4" y="16" width="6" height="2"/></symbol><symbol id="suporte" viewBox="0 0 24 24"><path d="M11,18h2v-2h-2V18z M12,2C6.5,2,2,6.5,2,12s4.5,10,10,10s10-4.5,10-10S17.5,2,12,2z M12,20c-4.4,0-8-3.6-8-8s3.6-8,8-8	s8,3.6,8,8S16.4,20,12,20z M12,6c-2.2,0-4,1.8-4,4h2c0-1.1,0.9-2,2-2s2,0.9,2,2c0,2-3,1.8-3,5h2c0-2.3,3-2.5,3-5C16,7.8,14.2,6,12,6	z"/></symbol><symbol id="suspensas" viewBox="0 0 24 24">
    <path d="M6 19h4V5H6v14zm8-14v14h4V5h-4z"/>
    <path d="M0 0h24v24H0z" fill="none"/>
</symbol><symbol id="telefone_invalido" viewBox="0 0 24 24"><path d="M22.7,22.7L1.3,1.3L0,2.5l5,5V21c0,1.1,0.9,2,2,2h10c0.9,0,1.7-0.7,1.9-1.5l2.5,2.5L22.7,22.7z M7,19V9.5l9.5,9.5H7z"/><path d="M17,5v9.5l2,2V3c0-1.1-0.9-2-2-2H7C6.1,1,5.3,1.6,5.1,2.5L7.5,5H17z"/></symbol><symbol id="texto" viewBox="0 0 24 24"><path d="M14,17H4v2h10V17z M20,9H4v2h16V9z M4,15h16v-2H4V15z M4,5v2h16V5H4z"/></symbol><symbol id="tipo" viewBox="0 0 24 24">
<path d="M0 0h24v24H0V0z" fill="none"/><path d="M20 2H4c-1.1 0-2 .9-2 2v18l4-4h14c1.1 0 2-.9 2-2V4c0-1.1-.9-2-2-2zm0 14H6l-2 2V4h16v12z"/>
</symbol><symbol id="trava_aberta" viewBox="0 0 24 24"><path d="M0 0h24v24H0z" fill="none"/><path d="M12 17c1.1 0 2-.9 2-2s-.9-2-2-2-2 .9-2 2 .9 2 2 2zm6-9h-1V6c0-2.76-2.24-5-5-5S7 3.24 7 6h1.9c0-1.71 1.39-3.1 3.1-3.1 1.71 0 3.1 1.39 3.1 3.1v2H6c-1.1 0-2 .9-2 2v10c0 1.1.9 2 2 2h12c1.1 0 2-.9 2-2V10c0-1.1-.9-2-2-2zm0 12H6V10h12v10z"/>
</symbol><symbol id="trava_fechada" viewBox="0 0 24 24"><path d="M12 17c1.1 0 2-.9 2-2s-.9-2-2-2-2 .9-2 2 .9 2 2 2zm6-9h-1V6c0-2.76-2.24-5-5-5S7 3.24 7 6v2H6c-1.1 0-2 .9-2 2v10c0 1.1.9 2 2 2h12c1.1 0 2-.9 2-2V10c0-1.1-.9-2-2-2zM8.9 6c0-1.71 1.39-3.1 3.1-3.1s3.1 1.39 3.1 3.1v2H8.9V6zM18 20H6V10h12v10z"/></symbol><symbol id="trocar_senha" viewBox="0 0 24 24"><path d="M0 0h24v24H0z" fill="none"/><path d="M12 17c1.1 0 2-.9 2-2s-.9-2-2-2-2 .9-2 2 .9 2 2 2zm6-9h-1V6c0-2.76-2.24-5-5-5S7 3.24 7 6h1.9c0-1.71 1.39-3.1 3.1-3.1 1.71 0 3.1 1.39 3.1 3.1v2H6c-1.1 0-2 .9-2 2v10c0 1.1.9 2 2 2h12c1.1 0 2-.9 2-2V10c0-1.1-.9-2-2-2zm0 12H6V10h12v10z"/></symbol><symbol id="usuario" viewBox="0 0 24 24"><path d="M12,12c2.2,0,4-1.8,4-4s-1.8-4-4-4S8,5.8,8,8S9.8,12,12,12z M12,14c-2.7,0-8,1.3-8,4v2h16v-2C20,15.3,14.7,14,12,14z"/></symbol><symbol id="visualizar" viewBox="0 0 24 24"><path d="M12,8.2c3.6,0,6.1,2.3,7.2,3.5c-1.1,1.4-3.6,4.1-7.2,4.1c-3.4,0-6-2.7-7.2-4.1C5.9,10.4,8.5,8.2,12,8.2z M12,6.7	c-5.8,0-9.1,5-9.1,5s3.7,5.7,9.1,5.7c5.9,0,9.1-5.7,9.1-5.7S17.9,6.7,12,6.7z M12,9c-1.7,0-3,1.4-3,3s1.4,3,3,3c1.7,0,3-1.4,3-3	S13.7,9,12,9z M12,12c-0.4,0.4-1.1,0.4-1.6,0s-0.4-1.1,0-1.6c0.4-0.4,1.1-0.4,1.6,0C12.4,10.9,12.4,11.6,12,12z"/></symbol><symbol id="voltar" viewBox="0 0 24 24"><path d="M21,11H6.8l3.6-3.6L9,6l-6,6l6,6l1.4-1.4L6.8,13H21V11z"/></symbol></svg>