<?xml version="1.0" encoding="utf-8"?>
<svg xmlns="http://www.w3.org/2000/svg" xmlns:xlink="http://www.w3.org/1999/xlink" x="0px" y="0px"
 viewBox="0 0 24 24" style="enable-background:new 0 0 24 24;" xml:space="preserve">
<g>
<path d="M21,1h-8c-1.4,0-2.5,1.1-2.5,2.5v17c0,1.4,1.1,2.5,2.5,2.5h8c1.4,0,2.5-1.1,2.5-2.5v-17C23.5,2.1,22.4,1,21,1z M17,22
		c-0.8,0-1.5-0.7-1.5-1.5c0-0.8,0.7-1.5,1.5-1.5c0.8,0,1.5,0.7,1.5,1.5C18.5,21.3,17.8,22,17,22z M21.5,18h-9V4h9V18z"/>
	<path d="M8.5,4V3.5c0-0.9,0.3-1.8,0.8-2.5H4C2.6,1,1.5,2.1,1.5,3.5v17C1.5,21.9,2.6,23,4,23h5.3c-0.2-0.4-0.4-0.8-0.5-1.2
		C8.5,21.9,8.3,22,8,22c-0.8,0-1.5-0.7-1.5-1.5C6.5,19.7,7.2,19,8,19c0.2,0,0.3,0,0.5,0.1V18h-5V4H8.5z"/>
</g>
</svg>
