<?xml version="1.0" encoding="utf-8"?>
<!-- Generator: Adobe Illustrator 21.0.2, SVG Export Plug-In . SVG Version: 6.00 Build 0)  -->
<svg version="1.1" id="Layer_1" xmlns="http://www.w3.org/2000/svg" xmlns:xlink="http://www.w3.org/1999/xlink" x="0px" y="0px"
	 viewBox="0 0 24 24" style="enable-background:new 0 0 24 24;" xml:space="preserve">
<path d="M12,14.9c1.7,0,3-1.4,3-3s-1.4-3-3-3s-3,1.4-3,3S10.3,14.9,12,14.9z M12,16.4c-2.1,0-6.1,1-6.1,3V21h12.2v-1.5
	C18.1,17.4,14.1,16.4,12,16.4z"/>
<path d="M5,12c0-3.9,3.1-7,7-7s7,3.1,7,7c0,1.7-0.6,3.2-1.5,4.4c0.6,0.4,1.1,0.8,1.5,1.3c1.3-1.5,2-3.5,2-5.7c0-5-4-9-9-9s-9,4-9,9
	H0l4,4l4-4H5z"/>
</svg>
